<svg xmlns="http://www.w3.org/2000/svg" width="1137.333" height="1136" preserveAspectRatio="xMidYMid meet" version="1.0" viewBox="0 0 853 852"><g fill="#000" stroke="none"><path d="M1445 7084 c-117 -41 -198 -130 -211 -229 -8 -64 -16 -83 -40 -94 -14 -6 -30 -11 -37 -11 -7 0 -25 -12 -42 -26 -16 -14 -40 -34 -52 -44 -35 -28 -74 -116 -83 -187 -5 -36 -7 -71 -5 -77 2 -6 6 -38 9 -71 3 -33 10 -76 16 -95 6 -19 13 -44 16 -56 18 -89 205 -478 262 -547 9 -9 20 -26 26 -37 6 -10 31 -51 56 -91 68 -107 68 -108 73 -199 3 -47 8 -92 11 -100 3 -8 7 -37 10 -65 2 -27 11 -70 19 -95 18 -53 48 -158 47 -165 0 -3 9 -22 20 -42 11 -21 20 -42 21 -48 0 -5 20 -44 43 -85 l44 -75 -18 -46 c-17 -42 -20 -118 -8 -169 22 -90 124 -162 229 -161 32 0 67 5 78 10 15 8 25 6 47 -11 16 -12 31 -25 34 -29 11 -15 187 -123 258 -159 85 -43 182 -83 182 -75 0 3 10 0 22 -6 12 -7 83 -24 157 -39 243 -49 475 -39 730 32 79 21 105 32 216 85 138 67 205 110 325 213 126 106 150 137 150 189 0 40 -31 71 -71 71 -24 0 -48 -17 -122 -88 -185 -175 -383 -280 -658 -347 -71 -18 -60 -17 -284 -18 -196 0 -247 7 -420 60 -70 22 -208 87 -260 123 -24 17 -46 30 -50 30 -3 0 -30 18 -60 41 -53 40 -54 42 -48 78 8 40 9 88 2 141 -3 31 -1 35 16 32 11 -2 38 -20 60 -41 58 -55 154 -125 211 -153 27 -14 58 -30 69 -36 25 -13 83 -35 87 -32 2 1 27 -8 56 -19 28 -11 67 -23 85 -26 17 -3 59 -11 92 -17 152 -28 383 -5 555 54 126 44 302 144 335 191 22 32 19 74 -10 102 -37 38 -76 30 -148 -29 -59 -48 -205 -115 -281 -130 -11 -3 -50 -12 -86 -21 -80 -22 -312 -25 -380 -5 -25 7 -49 13 -55 14 -5 1 -16 5 -23 10 -7 4 -16 6 -18 3 -9 -8 -153 51 -223 92 -111 65 -241 187 -315 295 -60 88 -133 243 -141 297 -1 13 -11 53 -20 89 -27 100 -24 300 5 395 5 17 12 45 15 64 8 47 87 212 137 285 22 34 71 91 107 129 68 70 84 75 121 40 8 -8 38 -31 65 -51 197 -146 355 -284 609 -534 158 -155 178 -179 171 -200 -28 -91 -12 -202 38 -257 50 -54 98 -75 172 -75 84 0 138 24 184 82 39 50 51 82 51 136 0 79 -11 108 -64 162 -60 61 -110 79 -200 71 l-59 -5 -57 60 c-38 39 -62 58 -71 53 -8 -6 -10 -4 -4 4 9 16 -158 179 -386 376 -19 17 -66 57 -104 91 -66 57 -105 87 -311 241 -149 111 -536 344 -569 343 -3 0 -22 7 -43 16 -72 31 -187 74 -207 78 -11 3 -53 12 -93 20 -40 9 -75 16 -77 16 -9 0 3 57 18 87 40 76 131 102 284 79 53 -8 201 -57 278 -92 33 -15 65 -28 70 -28 6 -1 33 -14 60 -30 28 -16 83 -48 123 -70 106 -59 333 -211 447 -297 112 -86 177 -138 208 -165 18 -16 73 -63 122 -104 50 -41 130 -113 179 -160 48 -47 93 -83 100 -82 6 2 8 0 3 -4 -4 -4 49 -64 117 -133 191 -194 270 -282 390 -432 21 -27 43 -49 47 -49 5 0 9 -4 9 -10 0 -5 14 -32 30 -60 35 -60 37 -75 10 -115 -30 -46 -44 -129 -30 -179 18 -66 60 -117 119 -148 94 -49 196 -34 271 42 136 135 53 364 -140 387 -26 3 -52 8 -57 12 -5 3 -28 38 -52 78 -23 39 -50 81 -59 91 -9 11 -33 40 -52 63 -19 24 -66 79 -105 122 -38 44 -83 95 -99 115 -58 72 -469 474 -590 577 -105 90 -146 127 -146 135 0 8 95 6 173 -5 53 -7 60 -5 83 16 43 40 29 108 -26 128 -69 24 -234 35 -335 23 -92 -12 -98 -11 -126 9 -16 11 -29 17 -29 12 0 -4 -5 -1 -10 8 -6 10 -35 34 -67 55 -55 36 -56 38 -32 47 126 51 444 68 619 32 47 -9 108 -26 137 -37 28 -10 62 -21 75 -23 63 -12 78 -26 78 -68 0 -60 19 -113 59 -158 40 -47 120 -89 170 -89 126 0 235 102 244 230 3 44 -1 65 -21 105 -46 95 -108 137 -202 139 -59 1 -173 -32 -163 -47 3 -5 2 -8 -3 -6 -74 31 -254 91 -284 95 -8 1 -55 10 -105 20 -122 24 -346 24 -475 0 -126 -23 -248 -55 -284 -73 -35 -18 -65 -11 -131 29 -73 45 -207 118 -225 123 -3 1 -22 9 -42 18 -21 10 -42 17 -48 17 -6 0 -27 8 -48 19 -20 10 -90 30 -154 45 -131 29 -249 33 -313 10z m2298 -415 c26 -12 47 -47 47 -78 0 -26 -52 -71 -84 -71 -37 0 -76 41 -76 79 0 34 40 81 70 81 10 0 30 -5 43 -11z m-2243 -68 c121 -35 304 -110 327 -134 14 -13 11 -20 -24 -58 -133 -149 -251 -365 -317 -586 -9 -28 -16 -60 -16 -71 0 -10 -3 -22 -7 -26 -4 -4 -8 -17 -8 -28 0 -36 -19 -30 -45 14 -68 113 -83 141 -134 243 -122 247 -152 350 -142 492 7 108 9 122 16 120 3 -1 21 10 40 25 19 14 46 29 60 31 46 10 184 -2 250 -22z m541 -256 c26 -13 50 -21 54 -17 5 4 5 2 2 -4 -4 -6 5 -16 18 -22 33 -15 32 -23 -12 -69 -57 -59 -115 -130 -147 -182 -40 -62 -136 -261 -136 -282 0 -9 -9 -41 -19 -72 -11 -31 -20 -65 -19 -74 0 -10 -4 -57 -10 -105 -8 -76 -5 -154 12 -298 12 -101 91 -302 162 -413 64 -99 60 -115 -19 -85 -35 14 -67 19 -99 15 -26 -2 -45 0 -42 5 3 4 0 8 -6 8 -6 0 -13 8 -17 18 -3 9 -12 24 -20 33 -8 9 -22 38 -32 65 -11 27 -31 78 -45 114 -15 36 -29 79 -31 95 -2 17 -9 45 -14 64 -6 19 -8 38 -5 42 3 5 2 14 -2 21 -13 21 -17 71 -17 223 1 128 6 220 13 220 1 0 3 11 5 25 8 69 36 166 74 255 24 56 84 179 92 189 5 6 34 47 65 91 52 74 131 165 144 165 3 0 26 -11 51 -25z m1403 -1016 c21 -16 26 -29 26 -64 0 -35 -5 -48 -26 -64 -35 -28 -76 -26 -111 3 -33 28 -38 57 -17 97 26 52 82 64 128 28z m681 -284 c42 -41 27 -104 -32 -134 -48 -25 -113 22 -113 81 0 70 95 104 145 53z m-2223 -495 c24 -25 29 -36 24 -58 -21 -87 -156 -80 -156 8 0 39 39 80 75 80 16 0 39 -12 57 -30z" transform="translate(0.000000,852.000000) scale(0.100000,-0.100000)"/></g></svg>